<svg  fill="currentColor" width="679.05" height="141.75" viewBox="0 0 750 141.75" xmlns="http://www.w3.org/2000/svg"><path id="katakana-project" d="M 40.5 108 L 0 108 L 0 0 L 67.5 0 L 74.25 6.75 L 87.75 6.75 L 87.75 13.5 L 94.5 20.25 L 94.5 27 L 101.25 33.75 L 101.25 40.5 L 94.5 40.5 L 94.5 33.75 L 87.75 27 L 87.75 20.25 L 81 13.5 L 67.5 13.5 L 67.5 6.75 L 6.75 6.75 L 6.75 101.25 L 40.5 101.25 L 40.5 81 L 47.25 74.25 L 60.75 74.25 L 60.75 67.5 L 81 67.5 L 87.75 60.75 L 87.75 54 L 94.5 47.25 L 94.5 40.5 L 101.25 47.25 L 94.5 54 L 94.5 60.75 L 87.75 67.5 L 87.75 74.25 L 67.5 74.25 L 60.75 81 L 47.25 81 L 47.25 101.25 L 40.5 108 Z M 173.25 54 L 166.5 54 L 166.5 60.75 L 146.25 60.75 L 139.5 67.5 L 139.5 101.25 L 112.5 101.25 L 112.5 33.75 L 139.5 33.75 L 139.5 40.5 L 146.25 40.5 L 153 33.75 L 173.25 33.75 L 173.25 40.5 L 180 40.5 L 180 33.75 L 173.25 27 L 146.25 27 L 146.25 33.75 L 139.5 27 L 105.75 27 L 105.75 108 L 139.5 108 L 146.25 101.25 L 146.25 67.5 L 166.5 67.5 L 173.25 60.75 L 180 60.75 L 173.25 54 Z M 585.75 40.5 L 592.5 40.5 L 592.5 33.75 L 585.75 27 L 565.5 27 L 565.5 6.75 L 558.75 0 L 525 0 L 525 27 L 511.5 27 L 511.5 54 L 518.25 60.75 L 525 60.75 L 525 94.5 L 531.75 94.5 L 538.5 101.25 L 538.5 108 L 579 108 L 585.75 101.25 L 545.25 101.25 L 538.5 94.5 L 538.5 87.75 L 531.75 87.75 L 531.75 60.75 L 525 54 L 518.25 54 L 518.25 33.75 L 531.75 33.75 L 531.75 6.75 L 558.75 6.75 L 558.75 27 L 565.5 33.75 L 585.75 33.75 L 585.75 40.5 Z M 672.3 94.5 L 665.55 101.25 L 645.3 101.25 L 645.3 108 L 625.05 108 L 618.3 101.25 L 604.8 101.25 L 604.8 94.5 L 598.05 94.5 L 598.05 87.75 L 631.8 87.75 L 638.55 81 L 631.8 74.25 L 611.55 74.25 L 611.55 67.5 L 604.8 67.5 L 598.05 60.75 L 598.05 47.25 L 604.8 40.5 L 611.55 40.5 L 611.55 33.75 L 598.05 33.75 L 598.05 40.5 L 591.3 47.25 L 591.3 60.75 L 598.05 67.5 L 598.05 74.25 L 604.8 74.25 L 611.55 81 L 598.05 81 L 591.3 87.75 L 591.3 101.25 L 598.05 101.25 L 604.8 108 L 618.3 108 L 618.3 114.75 L 645.3 114.75 L 652.05 108 L 672.3 108 L 672.3 94.5 Z M 279.75 74.25 L 279.75 108 L 266.25 108 L 259.5 114.75 L 259.5 141.75 L 286.5 141.75 L 293.25 135 L 313.5 135 L 313.5 121.5 L 320.25 121.5 L 313.5 114.75 L 313.5 101.25 L 320.25 101.25 L 320.25 94.5 L 313.5 87.75 L 320.25 87.75 L 320.25 81 L 313.5 74.25 L 313.5 87.75 L 313.5 101.25 L 313.5 114.75 L 306.75 114.75 L 306.75 128.25 L 286.5 128.25 L 286.5 135 L 266.25 135 L 266.25 114.75 L 279.75 114.75 L 286.5 108 L 286.5 81 L 279.75 74.25 Z M 505.95 81 L 505.95 87.75 L 499.2 94.5 L 492.45 94.5 L 492.45 101.25 L 478.95 101.25 L 472.2 108 L 451.95 108 L 451.95 101.25 L 438.45 101.25 L 431.7 94.5 L 431.7 87.75 L 424.95 81 L 424.95 54 L 431.7 47.25 L 438.45 47.25 L 438.45 40.5 L 445.2 33.75 L 438.45 33.75 L 431.7 40.5 L 424.95 40.5 L 424.95 47.25 L 418.2 54 L 418.2 81 L 424.95 87.75 L 424.95 94.5 L 431.7 101.25 L 431.7 108 L 445.2 108 L 451.95 114.75 L 478.95 114.75 L 478.95 108 L 492.45 108 L 499.2 101.25 L 505.95 101.25 L 505.95 87.75 L 512.7 87.75 L 505.95 81 Z M 203.7 108 L 190.2 108 L 190.2 101.25 L 183.45 94.5 L 183.45 87.75 L 176.7 81 L 176.7 54 L 183.45 47.25 L 183.45 40.5 L 190.2 33.75 L 203.7 33.75 L 196.95 40.5 L 190.2 40.5 L 190.2 47.25 L 183.45 54 L 183.45 81 L 190.2 87.75 L 190.2 94.5 L 196.95 101.25 L 210.45 101.25 L 210.45 108 L 237.45 108 L 244.2 101.25 L 250.95 101.25 L 250.95 94.5 L 257.7 94.5 L 264.45 87.75 L 264.45 101.25 L 257.7 101.25 L 250.95 108 L 244.2 108 L 244.2 114.75 L 210.45 114.75 L 203.7 108 Z M 412.5 74.25 L 372 74.25 L 365.25 81 L 372 87.75 L 405.75 87.75 L 405.75 94.5 L 399 94.5 L 399 101.25 L 392.25 101.25 L 385.5 108 L 358.5 108 L 358.5 114.75 L 392.25 114.75 L 392.25 108 L 399 108 L 405.75 101.25 L 412.5 101.25 L 412.5 87.75 L 405.75 81 L 412.5 81 L 412.5 74.25 Z M 505.95 60.75 L 478.95 60.75 L 472.2 54 L 458.7 54 L 458.7 81 L 465.45 87.75 L 472.2 87.75 L 472.2 81 L 505.95 81 L 505.95 74.25 L 472.2 74.25 L 465.45 81 L 465.45 60.75 L 472.2 60.75 L 472.2 67.5 L 505.95 67.5 L 505.95 60.75 Z M 652.05 60.75 L 631.8 60.75 L 631.8 47.25 L 665.55 47.25 L 665.55 40.5 L 658.8 40.5 L 652.05 33.75 L 665.55 33.75 L 672.3 40.5 L 679.05 40.5 L 679.05 47.25 L 672.3 47.25 L 679.05 54 L 658.8 54 L 658.8 60.75 L 665.55 60.75 L 672.3 67.5 L 679.05 67.5 L 679.05 74.25 L 665.55 74.25 L 665.55 67.5 L 658.8 67.5 L 652.05 60.75 Z M 313.5 20.25 L 286.5 20.25 L 286.5 0 L 279.75 0 L 279.75 20.25 L 286.5 27 L 279.75 33.75 L 279.75 74.25 L 286.5 74.25 L 286.5 33.75 L 320.25 33.75 L 320.25 27 L 313.5 20.25 Z M 358.5 108 L 338.25 108 L 338.25 101.25 L 331.5 94.5 L 331.5 87.75 L 324.75 81 L 324.75 54 L 331.5 47.25 L 331.5 40.5 L 338.25 40.5 L 345 33.75 L 351.75 33.75 L 345 40.5 L 345 47.25 L 338.25 47.25 L 331.5 54 L 331.5 81 L 338.25 87.75 L 338.25 94.5 L 345 101.25 L 358.5 101.25 L 358.5 108 Z M 579 81 L 558.75 81 L 558.75 54 L 579 54 L 585.75 47.25 L 585.75 40.5 L 592.5 47.25 L 585.75 54 L 585.75 60.75 L 565.5 60.75 L 565.5 74.25 L 585.75 74.25 L 585.75 81 L 592.5 87.75 L 585.75 94.5 L 585.75 87.75 L 579 81 Z M 223.95 87.75 L 217.2 81 L 217.2 54 L 223.95 47.25 L 230.7 47.25 L 230.7 54 L 237.45 60.75 L 237.45 87.75 L 223.95 87.75 Z M 47.25 54 L 33.75 54 L 33.75 27 L 54 27 L 60.75 33.75 L 60.75 47.25 L 54 47.25 L 47.25 54 Z M 399 40.5 L 392.25 40.5 L 392.25 33.75 L 405.75 33.75 L 405.75 40.5 L 412.5 47.25 L 412.5 54 L 419.25 60.75 L 412.5 60.75 L 405.75 54 L 405.75 47.25 L 399 40.5 Z M 257.7 40.5 L 244.2 40.5 L 244.2 33.75 L 264.45 33.75 L 264.45 40.5 L 271.2 47.25 L 264.45 47.25 L 257.7 40.5 Z M 492.45 40.5 L 485.7 40.5 L 485.7 33.75 L 499.2 33.75 L 499.2 40.5 L 505.95 47.25 L 505.95 54 L 499.2 54 L 499.2 47.25 L 492.45 40.5 Z M 223.95 81 L 230.7 81 L 230.7 60.75 L 223.95 54 L 223.95 81 Z M 40.5 33.75 L 40.5 47.25 L 47.25 47.25 L 47.25 40.5 L 54 40.5 L 54 33.75 L 40.5 33.75 Z M 378.75 60.75 L 372 60.75 L 365.25 54 L 372 47.25 L 378.75 47.25 L 378.75 60.75 Z M 180 54 L 173.25 54 L 173.25 40.5 L 180 47.25 L 180 54 Z M 313.5 6.75 L 313.5 20.25 L 320.25 20.25 L 320.25 13.5 L 313.5 6.75 Z M 320.25 47.25 L 313.5 47.25 L 313.5 33.75 L 320.25 40.5 L 320.25 47.25 Z M 313.5 47.25 L 313.5 60.75 L 320.25 60.75 L 320.25 54 L 313.5 47.25 Z M 313.5 60.75 L 313.5 74.25 L 320.25 74.25 L 320.25 67.5 L 313.5 60.75 Z M 679.05 87.75 L 672.3 87.75 L 672.3 74.25 L 679.05 81 L 679.05 87.75 Z M 585.75 94.5 L 585.75 108 L 592.5 101.25 L 585.75 94.5 Z M 320.25 6.75 L 313.5 6.75 L 313.5 0 L 320.25 0 L 320.25 6.75 Z M 271.2 60.75 L 264.45 60.75 L 264.45 54 L 271.2 60.75 Z M 264.45 87.75 L 271.2 87.75 L 264.45 81 L 264.45 87.75 Z M 271.2 74.25 L 264.45 74.25 L 264.45 67.5 L 271.2 74.25 Z M 313.5 101.25 L 320.25 108 L 320.25 114.75 L 313.5 114.75 M 419.25 74.25 L 412.5 74.25 L 412.5 67.5 L 419.25 74.25 Z M 505.95 54 L 505.95 60.75 L 512.7 60.75 L 505.95 54 Z M 672.3 87.75 L 672.3 94.5 L 679.05 94.5 L 672.3 87.75 Z" vector-effect="non-scaling-stroke"/>
</svg>